<?xml version="1.0" standalone="no"?>
<!DOCTYPE svg PUBLIC "-//W3C//DTD SVG 20010904//EN"
 "http://www.w3.org/TR/2001/REC-SVG-20010904/DTD/svg10.dtd">
<svg version="1.0" xmlns="http://www.w3.org/2000/svg"
 width="404.000000pt" height="289.000000pt" viewBox="0 0 404.000000 289.000000"
 preserveAspectRatio="xMidYMid meet">

<g transform="translate(0.000000,289.000000) scale(0.100000,-0.100000)"
fill="#000000" stroke="none">
<path d="M2662 1443 l3 -1258 475 0 475 0 54 30 c54 30 83 61 117 125 18 33
19 75 19 930 l0 895 -31 55 c-37 66 -101 113 -174 129 -31 7 -181 11 -380 11
l-330 0 0 170 0 170 -115 0 -115 0 2 -1257z m148 1042 l0 -135 -35 0 -35 0 0
135 0 135 35 0 35 0 0 -135z m815 -227 c77 -42 105 -103 105 -229 l0 -91 -32
21 c-32 19 -33 23 -38 98 -10 156 -2 153 -430 153 l-340 0 0 36 0 35 353 -3
c305 -3 356 -5 382 -20z m-815 -123 l0 -135 -35 0 -35 0 0 135 0 135 35 0 35
0 0 -135z m758 -17 c7 -7 12 -34 12 -60 l0 -48 -345 0 -345 0 0 48 c0 26 5 53
12 60 17 17 649 17 666 0z m32 -198 c45 -12 107 -75 120 -121 6 -18 10 -73 10
-122 l0 -87 -35 22 c-34 23 -35 24 -35 91 0 41 -6 80 -15 97 -30 58 -41 60
-415 60 l-340 0 0 35 0 35 338 0 c190 0 352 -4 372 -10z m-790 -135 l0 -135
-35 0 -35 0 0 135 0 135 35 0 35 0 0 -135z m758 -17 c7 -7 12 -34 12 -60 l0
-48 -345 0 -345 0 0 48 c0 26 5 53 12 60 17 17 649 17 666 0z m74 -217 c68
-47 82 -81 87 -204 l3 -110 -33 21 c-33 20 -34 24 -39 99 -10 156 -2 153 -430
153 l-340 0 0 35 0 36 358 -3 359 -3 35 -24z m-832 -151 l0 -170 378 0 c218 0
392 -4 411 -10 46 -13 109 -75 121 -120 13 -46 13 -665 0 -709 -14 -49 -74
-107 -124 -120 -28 -8 -166 -11 -446 -9 l-405 3 -3 653 -2 652 35 0 35 0 0
-170z m770 -55 l0 -35 -345 0 -345 0 0 35 0 35 345 0 345 0 0 -35z"/>
<path d="M2868 1144 c-56 -30 -58 -43 -58 -399 0 -358 2 -370 60 -400 43 -22
687 -22 730 0 58 30 60 42 60 400 0 358 -2 370 -60 400 -43 22 -691 22 -732
-1z m710 -146 l-3 -33 -342 -3 -343 -2 0 35 0 35 346 0 345 0 -3 -32z m2 -166
c0 -26 -5 -53 -12 -60 -17 -17 -649 -17 -666 0 -7 7 -12 34 -12 60 l0 48 345
0 345 0 0 -48z m-2 -184 l-3 -33 -342 -3 -343 -2 0 35 0 35 346 0 345 0 -3
-32z m2 -166 c0 -26 -5 -53 -12 -60 -17 -17 -649 -17 -666 0 -7 7 -12 34 -12
60 l0 48 345 0 345 0 0 -48z"/>
<path d="M440 2351 c-83 -19 -135 -57 -178 -130 -26 -45 -27 -49 -26 -201 0
-85 0 -168 0 -185 0 -16 -1 -276 -1 -576 l0 -546 30 -48 c40 -64 101 -110 165
-124 31 -7 180 -11 381 -11 l330 0 -3 -57 -3 -58 -335 0 -335 0 -5 40 -5 40
-114 3 -114 3 5 -71 c4 -55 12 -81 34 -117 39 -62 101 -109 164 -122 31 -7
180 -11 379 -11 375 0 403 4 476 71 24 23 53 59 64 82 20 41 20 62 21 760 0
815 5 763 -83 844 -75 69 -100 73 -489 73 l-339 0 3 58 3 57 335 0 335 0 5
-40 5 -40 113 -3 112 -3 0 53 c0 29 -5 69 -10 89 -14 50 -80 122 -138 151 -46
23 -52 23 -397 25 -192 1 -366 -2 -385 -6z m757 -93 c38 -21 79 -72 88 -110 7
-26 5 -28 -26 -28 -27 1 -38 7 -54 33 -36 56 -40 57 -403 57 -276 0 -338 -3
-362 -15 -48 -25 -60 -51 -60 -135 0 -75 0 -75 -35 -98 l-35 -22 0 97 c0 141
35 203 130 232 22 6 168 9 380 8 307 -2 348 -4 377 -19z m-35 -338 c88 -25
173 -150 102 -150 -19 0 -39 14 -69 45 l-42 46 -357 -3 -358 -3 -29 -33 c-27
-30 -29 -38 -29 -110 0 -77 0 -77 -35 -100 l-35 -22 0 97 c1 140 36 205 128
233 40 12 680 12 724 0z m-27 -150 c4 -7 -110 -10 -335 -10 -225 0 -339 3
-335 10 4 6 127 10 335 10 208 0 331 -4 335 -10z m155 -131 l0 -50 -35 27
c-23 17 -35 35 -35 50 0 21 5 24 35 24 l35 0 0 -51z m-155 31 c4 -7 -110 -10
-334 -10 -221 0 -341 4 -341 10 0 14 667 14 675 0z m43 -105 c43 -19 79 -50
98 -87 20 -39 18 -48 -16 -48 -23 0 -41 10 -69 40 l-38 40 -352 0 -353 0 -34
-34 c-33 -33 -34 -37 -34 -112 l0 -79 -35 -23 -35 -22 0 97 c1 140 30 198 117
229 59 21 700 20 751 -1z m-43 -145 c4 -7 -110 -10 -335 -10 -225 0 -339 3
-335 10 4 6 127 10 335 10 208 0 331 -4 335 -10z m153 -128 l3 -54 -35 27
c-27 21 -36 35 -36 57 0 27 2 29 33 26 31 -3 32 -4 35 -56z m-153 28 c4 -7
-110 -10 -334 -10 -221 0 -341 4 -341 10 0 14 667 14 675 0z m27 -100 c88 -25
173 -150 102 -150 -19 0 -39 14 -69 45 l-42 46 -357 -3 -358 -3 -29 -33 c-29
-32 -29 -34 -29 -152 0 -118 0 -120 29 -152 l29 -33 369 -5 370 -5 37 -29 c68
-52 76 -74 76 -224 0 -146 -7 -171 -60 -216 -53 -44 -87 -47 -454 -44 l-343 3
-42 28 c-27 18 -49 44 -61 70 -22 48 -19 57 18 57 19 -1 33 -10 47 -33 36 -57
38 -57 418 -55 l349 3 29 33 c29 32 29 34 29 153 l0 121 -34 34 -34 34 -346 0
c-289 0 -353 3 -383 15 -89 38 -113 88 -113 245 0 91 4 124 19 156 19 43 63
80 109 94 40 12 680 12 724 0z m-27 -150 c4 -7 -110 -10 -335 -10 -225 0 -339
3 -335 10 4 6 127 10 335 10 208 0 331 -4 335 -10z m155 -175 c0 -52 -3 -95
-6 -95 -3 0 -19 9 -35 21 -28 19 -29 24 -29 95 l0 74 35 0 35 0 0 -95z m-155
75 c4 -7 -110 -10 -334 -10 -221 0 -341 4 -341 10 0 14 667 14 675 0z m5 -100
c0 -6 -118 -10 -334 -10 -213 0 -337 4 -341 10 -4 7 110 10 334 10 221 0 341
-4 341 -10z m-348 -240 c219 0 338 -4 338 -10 0 -13 -629 -13 -684 -1 -21 5
-43 14 -49 20 -8 8 -1 8 24 1 19 -6 180 -10 371 -10z"/>
<path d="M1438 2008 c-4 -778 3 -1612 15 -1653 18 -63 99 -140 169 -160 83
-24 744 -19 799 6 56 26 110 79 135 134 l24 50 0 988 0 988 -112 -3 -113 -3
-5 -445 -5 -445 -335 0 -335 0 -5 445 -5 445 -112 3 -113 3 -2 -353z m150 135
l3 -133 -36 0 -35 0 0 136 0 135 33 -3 32 -3 3 -132z m912 2 l0 -135 -35 0
-35 0 0 128 c0 71 3 132 7 135 3 4 19 7 35 7 l28 0 0 -135z m-912 -352 l3
-133 -36 0 -35 0 0 136 0 135 33 -3 32 -3 3 -132z m912 2 l0 -135 -35 0 -35 0
0 128 c0 71 3 132 7 135 3 4 19 7 35 7 l28 0 0 -135z m-912 -352 l3 -133 -36
0 -35 0 0 136 0 135 33 -3 32 -3 3 -132z m912 2 l0 -135 -35 0 -35 0 0 128 c0
71 3 132 7 135 3 4 19 7 35 7 l28 0 0 -135z m-150 -100 l0 -35 -340 0 -340 0
0 35 0 35 340 0 340 0 0 -35z m-760 -538 l5 -419 33 -29 33 -30 354 3 355 3
27 28 28 27 5 418 5 417 33 3 32 3 0 -416 c0 -394 -1 -418 -20 -454 -24 -48
-60 -78 -112 -91 -25 -7 -163 -10 -381 -8 -382 3 -379 3 -434 75 l-28 36 -3
429 -3 429 33 -3 33 -3 5 -418z m758 366 l-3 -58 -335 0 -335 0 -3 58 -3 57
341 0 341 0 -3 -57z m2 -178 l0 -35 -340 0 -340 0 0 35 0 35 340 0 340 0 0
-35z m-2 -172 l-3 -58 -335 0 -335 0 -3 58 -3 57 341 0 341 0 -3 -57z m0 -175
l-3 -33 -337 -3 -338 -2 0 35 0 35 341 0 340 0 -3 -32z m0 -175 l-3 -58 -335
0 -335 0 -3 58 -3 57 341 0 341 0 -3 -57z"/>
</g>
</svg>
